<svg width="301" height="177" viewBox="0 0 301 177" fill="none" xmlns="http://www.w3.org/2000/svg">
<path d="M39.5285 162V146.4H41.7605V162H39.5285ZM37.0565 162L36.9125 161.232C37.2805 161.056 37.7285 160.904 38.2565 160.776C38.7845 160.632 39.2485 160.504 39.6485 160.392L39.6725 162H37.0565ZM41.1125 162L41.1845 160.488L44.4965 160.872L44.4725 162H41.1125ZM33.9845 150.312C33.9205 149.944 33.8645 149.568 33.8165 149.184C33.7845 148.784 33.7605 148.4 33.7445 148.032C33.7285 147.664 33.7205 147.328 33.7205 147.024C33.7205 146.704 33.7285 146.448 33.7445 146.256L35.6645 147.336L35.2805 150.312H33.9845ZM34.1525 147.96L33.7445 146.256C34.6245 146.288 35.5285 146.312 36.4565 146.328C37.3845 146.344 38.3125 146.36 39.2405 146.376C40.1845 146.376 41.1205 146.376 42.0485 146.376C42.9925 146.36 43.9205 146.344 44.8325 146.328C45.7605 146.312 46.6645 146.288 47.5445 146.256L47.1605 147.96L40.6565 147.72L34.1525 147.96ZM46.0085 150.312L45.6245 147.336L47.5445 146.256C47.5605 146.448 47.5685 146.704 47.5685 147.024C47.5685 147.328 47.5605 147.664 47.5445 148.032C47.5285 148.4 47.4965 148.784 47.4485 149.184C47.4165 149.568 47.3685 149.944 47.3045 150.312H46.0085ZM49.78 162V145.248L50.956 144.36L51.916 145.2V162H49.78ZM57.1 162V154.896C57.1 153.92 56.948 153.248 56.644 152.88C56.34 152.496 55.98 152.304 55.564 152.304C55.244 152.304 54.86 152.4 54.412 152.592C53.98 152.768 53.532 152.992 53.068 153.264C52.604 153.536 52.18 153.824 51.796 154.128L51.364 153.12C52.116 152.592 52.844 152.128 53.548 151.728C54.268 151.312 54.9 150.984 55.444 150.744C56.004 150.504 56.428 150.384 56.716 150.384C57.02 150.432 57.316 150.544 57.604 150.72C57.892 150.896 58.148 151.096 58.372 151.32C58.612 151.544 58.788 151.768 58.9 151.992C58.98 152.136 59.044 152.32 59.092 152.544C59.14 152.768 59.172 153.064 59.188 153.432C59.22 153.784 59.236 154.24 59.236 154.8V162H57.1ZM47.98 146.232L47.692 145.104C48.172 144.88 48.708 144.704 49.3 144.576C49.908 144.448 50.46 144.376 50.956 144.36L51.268 144.96L50.212 146.064L47.98 146.232ZM48.124 162L48.004 161.208C48.292 161.064 48.676 160.912 49.156 160.752C49.652 160.592 50.052 160.472 50.356 160.392L50.02 162H48.124ZM51.1 162L51.124 160.392C51.54 160.424 51.964 160.48 52.396 160.56C52.844 160.624 53.204 160.72 53.476 160.848L53.332 162H51.1ZM55.852 162L55.732 161.208C56.02 161.064 56.404 160.912 56.884 160.752C57.38 160.592 57.78 160.472 58.084 160.392L57.748 162H55.852ZM58.588 162L58.612 160.392C59.028 160.424 59.452 160.48 59.884 160.56C60.332 160.624 60.692 160.72 60.964 160.848L60.82 162H58.588ZM67.4498 162.36C66.4738 162.36 65.6178 162.2 64.8818 161.88C64.1458 161.56 63.5298 161.128 63.0338 160.584C62.5378 160.04 62.1698 159.424 61.9298 158.736C61.6898 158.048 61.5698 157.328 61.5698 156.576C61.5698 155.776 61.6978 155 61.9538 154.248C62.2258 153.496 62.6018 152.824 63.0818 152.232C63.5618 151.64 64.1378 151.168 64.8098 150.816C65.4978 150.464 66.2498 150.288 67.0658 150.288C67.6898 150.288 68.2658 150.392 68.7938 150.6C69.3218 150.808 69.7778 151.104 70.1618 151.488C70.5618 151.856 70.8658 152.296 71.0738 152.808C71.2818 153.32 71.3778 153.88 71.3618 154.488L69.3218 155.328C69.4018 154.624 69.2978 153.992 69.0098 153.432C68.7218 152.872 68.2978 152.44 67.7378 152.136C67.1938 151.832 66.5698 151.704 65.8658 151.752C65.3698 152.008 64.9698 152.376 64.6658 152.856C64.3778 153.336 64.1618 153.856 64.0178 154.416C63.8898 154.976 63.8258 155.528 63.8258 156.072C63.8258 157.016 64.0018 157.824 64.3538 158.496C64.7058 159.152 65.1778 159.656 65.7698 160.008C66.3618 160.36 67.0258 160.536 67.7618 160.536C68.2418 160.536 68.7378 160.464 69.2498 160.32C69.7618 160.176 70.2898 159.984 70.8338 159.744L71.1938 160.776L67.4498 162.36ZM69.9938 155.832L63.6338 155.712V154.464L71.0978 154.128L71.3618 154.488L69.9938 155.832ZM88.8211 156.12L88.8931 154.392C89.2611 154.472 89.6531 154.536 90.0691 154.584C90.4851 154.632 90.8691 154.672 91.2211 154.704C91.5891 154.72 91.8691 154.728 92.0611 154.728C92.9251 154.728 93.6131 154.552 94.1251 154.2C94.6531 153.848 95.0371 153.4 95.2771 152.856C95.5171 152.296 95.6371 151.712 95.6371 151.104C95.6371 150.608 95.5651 150.136 95.4211 149.688C95.2931 149.224 95.0851 148.816 94.7971 148.464C94.5251 148.096 94.1811 147.816 93.7651 147.624L89.2531 148.008L85.7011 146.4L92.3971 146.208C93.6771 146.208 94.7331 146.456 95.5651 146.952C96.4131 147.432 97.0451 148.048 97.4611 148.8C97.8771 149.552 98.0851 150.344 98.0851 151.176C98.0851 151.992 97.8771 152.784 97.4611 153.552C97.0611 154.304 96.4531 154.92 95.6371 155.4C94.8371 155.88 93.8291 156.12 92.6131 156.12H88.8211ZM85.4851 162L85.3411 161.232C85.7091 161.056 86.0931 160.904 86.4931 160.776C86.9091 160.632 87.3171 160.504 87.7171 160.392L87.7411 162H85.4851ZM89.0371 162L89.1091 160.488L92.4211 160.872L92.3971 162H89.0371ZM87.3811 162V146.4H89.6131V162H87.3811ZM87.9811 147.696L85.6771 147.552L85.7011 146.4H87.9331L87.9811 147.696ZM101.014 162V151.272L102.19 150.384L103.15 151.224V162H101.014ZM102.454 156.048L101.974 154.656L105.67 150.72C106.214 150.496 106.71 150.408 107.158 150.456C107.622 150.504 108.046 150.648 108.43 150.888C108.446 151.192 108.446 151.512 108.43 151.848C108.414 152.168 108.39 152.496 108.358 152.832C108.326 153.168 108.278 153.504 108.214 153.84C108.15 154.16 108.078 154.472 107.998 154.776H106.702L106.438 152.136C106.038 152.36 105.59 152.664 105.094 153.048C104.614 153.432 104.134 153.88 103.654 154.392C103.19 154.888 102.79 155.44 102.454 156.048ZM99.2144 152.256L98.9264 151.128C99.4064 150.904 99.9424 150.728 100.534 150.6C101.142 150.472 101.694 150.4 102.19 150.384L102.502 150.984L101.446 152.088L99.2144 152.256ZM99.3824 162L99.2624 161.208C99.5504 161.064 99.9344 160.912 100.414 160.752C100.91 160.592 101.31 160.472 101.614 160.392L101.278 162H99.3824ZM102.766 162L102.79 160.392C103.062 160.392 103.382 160.416 103.75 160.464C104.134 160.512 104.494 160.568 104.83 160.632C105.182 160.696 105.446 160.768 105.622 160.848L105.478 162H102.766ZM114.526 162.48C113.518 162.48 112.598 162.232 111.766 161.736C110.95 161.224 110.294 160.512 109.798 159.6C109.302 158.672 109.054 157.584 109.054 156.336C109.054 155.056 109.302 153.968 109.798 153.072C110.31 152.16 110.974 151.472 111.79 151.008C112.622 150.528 113.518 150.288 114.478 150.288C115.47 150.288 116.358 150.536 117.142 151.032C117.942 151.512 118.574 152.216 119.038 153.144C119.518 154.056 119.758 155.168 119.758 156.48C119.758 157.808 119.518 158.92 119.038 159.816C118.558 160.696 117.918 161.36 117.118 161.808C116.334 162.256 115.47 162.48 114.526 162.48ZM114.79 160.92C115.158 160.92 115.542 160.864 115.942 160.752C116.39 160.448 116.726 160.064 116.95 159.6C117.174 159.136 117.318 158.648 117.382 158.136C117.462 157.624 117.502 157.16 117.502 156.744C117.502 155.864 117.39 155.048 117.166 154.296C116.958 153.544 116.614 152.936 116.134 152.472C115.67 152.008 115.054 151.776 114.286 151.776C113.918 151.776 113.574 151.832 113.254 151.944C112.934 152.04 112.67 152.16 112.462 152.304C112.046 152.8 111.75 153.392 111.574 154.08C111.414 154.752 111.334 155.416 111.334 156.072C111.334 156.904 111.454 157.696 111.694 158.448C111.934 159.184 112.31 159.784 112.822 160.248C113.334 160.696 113.99 160.92 114.79 160.92ZM126.339 162.36C125.267 162.376 124.315 162.12 123.483 161.592C122.651 161.048 122.003 160.32 121.539 159.408C121.075 158.496 120.843 157.496 120.843 156.408C120.843 155.48 121.003 154.64 121.323 153.888C121.659 153.12 122.107 152.464 122.667 151.92C123.243 151.376 123.891 150.96 124.611 150.672C125.347 150.384 126.107 150.24 126.891 150.24C127.819 150.24 128.619 150.416 129.291 150.768C129.979 151.12 130.451 151.528 130.707 151.992L129.675 153.744C129.419 153.328 129.035 152.96 128.523 152.64C128.027 152.304 127.451 152.064 126.795 151.92C126.155 151.76 125.491 151.76 124.803 151.92C124.259 152.416 123.835 153.04 123.531 153.792C123.243 154.544 123.099 155.328 123.099 156.144C123.099 156.944 123.227 157.664 123.483 158.304C123.755 158.944 124.139 159.456 124.635 159.84C125.131 160.208 125.707 160.392 126.363 160.392C126.875 160.392 127.443 160.256 128.067 159.984C128.707 159.712 129.395 159.28 130.131 158.688L130.059 159.864L126.339 162.36ZM130.683 162.36C130.507 162.344 130.291 162.232 130.035 162.024C129.779 161.832 129.539 161.584 129.315 161.28C129.107 160.976 128.963 160.672 128.883 160.368V160.032V145.248L130.059 144.36L131.019 145.224V159.936C131.019 160.112 131.075 160.24 131.187 160.32C131.315 160.384 131.467 160.416 131.643 160.416C131.819 160.416 132.003 160.392 132.195 160.344C132.403 160.296 132.587 160.248 132.747 160.2L133.107 161.256L130.683 162.36ZM127.083 146.232L126.795 145.104C127.275 144.88 127.811 144.704 128.403 144.576C129.011 144.448 129.563 144.376 130.059 144.36L130.371 144.96L129.315 146.064L127.083 146.232ZM137.956 162.36C137.652 162.28 137.364 162.16 137.092 162C136.82 161.824 136.572 161.632 136.348 161.424C136.14 161.2 135.972 160.992 135.844 160.8C135.748 160.64 135.668 160.448 135.604 160.224C135.54 160 135.492 159.712 135.46 159.36C135.444 159.008 135.436 158.56 135.436 158.016V151.272L136.612 150.384L137.572 151.224V158.16C137.572 158.992 137.7 159.592 137.956 159.96C138.212 160.328 138.612 160.512 139.156 160.512C139.732 160.512 140.356 160.36 141.028 160.056C141.716 159.736 142.364 159.376 142.972 158.976L143.404 160.008C142.812 160.472 142.164 160.88 141.46 161.232C140.756 161.584 140.084 161.856 139.444 162.048C138.82 162.256 138.324 162.36 137.956 162.36ZM133.636 152.256L133.348 151.128C133.828 150.904 134.364 150.728 134.956 150.6C135.564 150.472 136.116 150.4 136.612 150.384L136.924 150.984L135.868 152.088L133.636 152.256ZM144.316 162.36C144.14 162.344 143.924 162.232 143.668 162.024C143.412 161.832 143.172 161.584 142.948 161.28C142.74 160.976 142.596 160.672 142.516 160.368V160.032V151.272L143.692 150.384L144.652 151.224V159.936C144.652 160.112 144.708 160.24 144.82 160.32C144.948 160.384 145.1 160.416 145.276 160.416C145.452 160.416 145.636 160.392 145.828 160.344C146.036 160.296 146.22 160.248 146.38 160.2L146.74 161.256L144.316 162.36ZM140.716 152.256L140.428 151.128C140.908 150.904 141.444 150.728 142.036 150.6C142.644 150.472 143.196 150.4 143.692 150.384L144.004 150.984L142.948 152.088L140.716 152.256ZM153.18 162.36C152.236 162.376 151.404 162.232 150.684 161.928C149.98 161.608 149.388 161.176 148.908 160.632C148.428 160.072 148.068 159.432 147.828 158.712C147.588 157.976 147.468 157.2 147.468 156.384C147.468 155.184 147.7 154.128 148.164 153.216C148.644 152.304 149.3 151.592 150.132 151.08C150.964 150.552 151.9 150.288 152.94 150.288C153.436 150.288 153.892 150.352 154.308 150.48C154.724 150.592 155.116 150.768 155.484 151.008C155.868 151.232 156.236 151.52 156.588 151.872L155.316 153.576C154.708 153.096 154.044 152.696 153.324 152.376C152.604 152.04 151.892 151.848 151.188 151.8C150.692 152.392 150.316 153.024 150.06 153.696C149.82 154.368 149.7 155.104 149.7 155.904C149.7 156.8 149.844 157.6 150.132 158.304C150.436 159.008 150.876 159.568 151.452 159.984C152.028 160.384 152.724 160.584 153.54 160.584C153.892 160.584 154.284 160.544 154.716 160.464C155.164 160.368 155.604 160.224 156.036 160.032L156.444 161.04L153.18 162.36ZM161.509 162.36C161.173 162.376 160.813 162.288 160.429 162.096C160.061 161.904 159.741 161.648 159.469 161.328C159.213 161.008 159.085 160.68 159.085 160.344V151.08L160.093 147.864H161.221V151.272V159.072C161.221 159.552 161.277 159.888 161.389 160.08C161.501 160.272 161.709 160.368 162.013 160.368C162.317 160.368 162.669 160.312 163.069 160.2C163.485 160.072 163.869 159.944 164.221 159.816L164.629 160.92L161.509 162.36ZM157.597 152.592L157.429 151.44C157.909 151.216 158.373 151.056 158.821 150.96C159.285 150.864 159.725 150.792 160.141 150.744L160.693 151.344L159.637 152.544L157.597 152.592ZM159.517 152.616V150.768H164.581L164.677 151.464L163.549 152.616H159.517ZM167.624 162V151.272L168.8 150.384L169.76 151.224V162H167.624ZM165.92 162L165.8 161.208C166.088 161.064 166.472 160.912 166.952 160.752C167.448 160.592 167.848 160.472 168.152 160.392L167.816 162H165.92ZM169.112 162L169.136 160.392C169.552 160.424 169.976 160.48 170.408 160.56C170.856 160.624 171.216 160.72 171.488 160.848L171.344 162H169.112ZM165.824 152.256L165.536 151.128C166.016 150.904 166.552 150.728 167.144 150.6C167.752 150.472 168.304 150.4 168.8 150.384L169.112 150.984L168.056 152.088L165.824 152.256ZM168.8 148.248C168.496 148.12 168.16 147.92 167.792 147.648C167.424 147.36 167.144 147.08 166.952 146.808C167.128 146.44 167.352 146.088 167.624 145.752C167.896 145.4 168.16 145.144 168.416 144.984C168.752 145.112 169.088 145.328 169.424 145.632C169.776 145.92 170.04 146.184 170.216 146.424C170.104 146.744 169.904 147.08 169.616 147.432C169.344 147.784 169.072 148.056 168.8 148.248ZM176.509 162.048L172.645 150.792L175.093 150.768L177.301 157.848L177.637 160.416H178.213C178.549 159.424 178.877 158.376 179.197 157.272C179.533 156.152 179.853 155.032 180.157 153.912C180.461 152.792 180.733 151.744 180.973 150.768H183.301C182.709 152.544 182.069 154.408 181.381 156.36C180.709 158.296 180.013 160.152 179.293 161.928C179.053 162.008 178.773 162.064 178.453 162.096C178.133 162.144 177.805 162.16 177.469 162.144C177.149 162.128 176.829 162.096 176.509 162.048ZM174.637 152.112L171.733 151.944L171.757 150.768H175.093L174.637 152.112ZM174.325 152.472L174.661 150.768H176.557L176.701 151.632C176.317 151.792 175.925 151.944 175.525 152.088C175.141 152.216 174.741 152.344 174.325 152.472ZM182.269 152.112L179.365 151.944L179.389 150.768H182.725L182.269 152.112ZM181.957 152.472L182.293 150.768H184.189L184.333 151.632C183.949 151.792 183.557 151.944 183.157 152.088C182.773 152.216 182.373 152.344 181.957 152.472ZM186.538 162V151.272L187.714 150.384L188.674 151.224V162H186.538ZM184.834 162L184.714 161.208C185.002 161.064 185.386 160.912 185.866 160.752C186.362 160.592 186.762 160.472 187.066 160.392L186.73 162H184.834ZM188.026 162L188.05 160.392C188.466 160.424 188.89 160.48 189.322 160.56C189.77 160.624 190.13 160.72 190.402 160.848L190.258 162H188.026ZM184.738 152.256L184.45 151.128C184.93 150.904 185.466 150.728 186.058 150.6C186.666 150.472 187.218 150.4 187.714 150.384L188.026 150.984L186.97 152.088L184.738 152.256ZM187.714 148.248C187.41 148.12 187.074 147.92 186.706 147.648C186.338 147.36 186.058 147.08 185.866 146.808C186.042 146.44 186.266 146.088 186.538 145.752C186.81 145.4 187.074 145.144 187.33 144.984C187.666 145.112 188.002 145.328 188.338 145.632C188.69 145.92 188.954 146.184 189.13 146.424C189.018 146.744 188.818 147.08 188.53 147.432C188.258 147.784 187.986 148.056 187.714 148.248ZM195.447 162.36C195.111 162.376 194.751 162.288 194.367 162.096C193.999 161.904 193.679 161.648 193.407 161.328C193.151 161.008 193.023 160.68 193.023 160.344V151.08L194.031 147.864H195.159V151.272V159.072C195.159 159.552 195.215 159.888 195.327 160.08C195.439 160.272 195.647 160.368 195.951 160.368C196.255 160.368 196.607 160.312 197.007 160.2C197.423 160.072 197.807 159.944 198.159 159.816L198.567 160.92L195.447 162.36ZM191.535 152.592L191.367 151.44C191.847 151.216 192.311 151.056 192.759 150.96C193.223 150.864 193.663 150.792 194.079 150.744L194.631 151.344L193.575 152.544L191.535 152.592ZM193.455 152.616V150.768H198.519L198.615 151.464L197.487 152.616H193.455ZM201.585 167.208L200.385 165.024C201.233 164.656 202.033 164.248 202.785 163.8C203.537 163.352 204.225 162.784 204.849 162.096C204.641 162.016 204.417 161.912 204.177 161.784C203.953 161.656 203.753 161.512 203.577 161.352L199.833 151.032L202.209 150.768L204.513 157.632L204.921 160.392H205.377C205.713 159.48 206.049 158.464 206.385 157.344C206.737 156.224 207.057 155.096 207.345 153.96C207.633 152.808 207.873 151.744 208.065 150.768H210.321C210.017 151.824 209.681 152.936 209.313 154.104C208.945 155.256 208.569 156.4 208.185 157.536C207.801 158.656 207.433 159.696 207.081 160.656C206.713 161.52 206.281 162.344 205.785 163.128C205.289 163.912 204.697 164.64 204.009 165.312C203.337 166 202.529 166.632 201.585 167.208ZM201.777 152.112L198.873 151.944L198.897 150.768H202.233L201.777 152.112ZM201.705 152.472L202.041 150.768H203.937L204.081 151.632C203.697 151.792 203.305 151.944 202.905 152.088C202.521 152.216 202.121 152.344 201.705 152.472ZM209.265 152.112L206.361 151.944L206.385 150.768H209.721L209.265 152.112ZM209.049 152.472L209.385 150.768H211.281L211.425 151.632C211.041 151.792 210.649 151.944 210.249 152.088C209.865 152.216 209.465 152.344 209.049 152.472ZM224.775 162L231.087 146.712L232.455 147.312L226.695 162H224.775ZM236.967 162L230.847 146.472L232.743 145.824L239.391 162H236.967ZM228.255 157.176V155.712H235.239V157.176H228.255ZM223.551 162L223.407 161.232C223.775 161.056 224.159 160.904 224.559 160.776C224.975 160.632 225.383 160.504 225.783 160.392L225.807 162H223.551ZM226.383 162L226.455 160.488L229.767 160.872L229.743 162H226.383ZM234.135 162L233.991 161.232C234.359 161.056 234.743 160.904 235.143 160.776C235.559 160.632 235.967 160.504 236.367 160.392L237.639 162H234.135ZM237.207 162L237.279 160.488L240.591 160.872L240.567 162H237.207ZM246.537 162.456C245.977 162.456 245.401 162.392 244.809 162.264C244.233 162.136 243.633 161.944 243.009 161.688L244.089 159.552C244.297 159.776 244.601 160.008 245.001 160.248C245.401 160.488 245.889 160.672 246.465 160.8C247.057 160.912 247.713 160.912 248.433 160.8C249.089 160.4 249.593 159.8 249.945 159C250.297 158.184 250.473 157.344 250.473 156.48C250.473 155.76 250.345 155.088 250.089 154.464C249.849 153.824 249.505 153.312 249.057 152.928C248.625 152.528 248.113 152.328 247.521 152.328C246.945 152.328 246.345 152.504 245.721 152.856C245.113 153.192 244.505 153.576 243.897 154.008L243.681 152.88L247.401 150.456C248.201 150.28 248.921 150.312 249.561 150.552C250.217 150.792 250.777 151.184 251.241 151.728C251.721 152.256 252.089 152.888 252.345 153.624C252.601 154.36 252.729 155.152 252.729 156C252.729 156.928 252.577 157.784 252.273 158.568C251.969 159.352 251.537 160.04 250.977 160.632C250.433 161.208 249.785 161.656 249.033 161.976C248.281 162.296 247.449 162.456 246.537 162.456ZM241.089 166.896L240.969 166.104C241.257 165.96 241.641 165.808 242.121 165.648C242.617 165.488 243.017 165.368 243.321 165.288L242.985 166.896H241.089ZM244.281 166.896L244.305 165.288C244.721 165.32 245.145 165.368 245.577 165.432C246.025 165.512 246.385 165.616 246.657 165.744L246.513 166.896H244.281ZM242.553 166.896V151.272L243.753 150.384L244.689 151.224V166.896H242.553ZM240.777 152.256L240.489 151.128C240.969 150.904 241.505 150.728 242.097 150.6C242.705 150.472 243.257 150.4 243.753 150.384L244.065 150.984L243.009 152.088L240.777 152.256ZM259.732 162.456C259.172 162.456 258.596 162.392 258.004 162.264C257.428 162.136 256.828 161.944 256.204 161.688L257.284 159.552C257.492 159.776 257.796 160.008 258.196 160.248C258.596 160.488 259.084 160.672 259.66 160.8C260.252 160.912 260.908 160.912 261.628 160.8C262.284 160.4 262.788 159.8 263.14 159C263.492 158.184 263.668 157.344 263.668 156.48C263.668 155.76 263.54 155.088 263.284 154.464C263.044 153.824 262.7 153.312 262.252 152.928C261.82 152.528 261.308 152.328 260.716 152.328C260.14 152.328 259.54 152.504 258.916 152.856C258.308 153.192 257.7 153.576 257.092 154.008L256.876 152.88L260.596 150.456C261.396 150.28 262.116 150.312 262.756 150.552C263.412 150.792 263.972 151.184 264.436 151.728C264.916 152.256 265.284 152.888 265.54 153.624C265.796 154.36 265.924 155.152 265.924 156C265.924 156.928 265.772 157.784 265.468 158.568C265.164 159.352 264.732 160.04 264.172 160.632C263.628 161.208 262.98 161.656 262.228 161.976C261.476 162.296 260.644 162.456 259.732 162.456ZM254.284 166.896L254.164 166.104C254.452 165.96 254.836 165.808 255.316 165.648C255.812 165.488 256.212 165.368 256.516 165.288L256.18 166.896H254.284ZM257.476 166.896L257.5 165.288C257.916 165.32 258.34 165.368 258.772 165.432C259.22 165.512 259.58 165.616 259.852 165.744L259.708 166.896H257.476ZM255.748 166.896V151.272L256.948 150.384L257.884 151.224V166.896H255.748ZM253.972 152.256L253.684 151.128C254.164 150.904 254.7 150.728 255.292 150.6C255.9 150.472 256.452 150.4 256.948 150.384L257.26 150.984L256.204 152.088L253.972 152.256Z" fill="#ffdd55"/>
<path d="M0.00491333 11.5L300.001 13.0337" stroke="#ffdd55" stroke-width="3"/>
<path d="M11.5 3V153" stroke="#ffdd55" stroke-width="3"/>
<path d="M288.5 4V156" stroke="#ffdd55" stroke-width="3"/>
<path d="M10 154.5H29" stroke="#ffdd55" stroke-width="3"/>
<path d="M270 154.5H287" stroke="#ffdd55" stroke-width="3"/>
<path d="M74.222 88.288L55.673 53.944H64.097L75.356 75.166L77.462 81.727L78.758 81.646L79.811 83.752L74.222 88.288ZM67.256 106.594L66.77 104.002C68.012 103.408 69.308 102.895 70.658 102.463C72.062 101.977 73.439 101.545 74.789 101.167L74.87 106.594H67.256ZM75.842 106.594L76.085 101.491L87.263 102.787L87.182 106.594H75.842ZM73.088 106.594V84.157H80.621V106.594H73.088ZM64.178 59.047L53 57.751L53.081 53.944H64.421L64.178 59.047ZM63.935 59.371L62.234 53.944H71.468L71.954 56.536C70.766 57.076 69.47 57.589 68.066 58.075C66.662 58.507 65.285 58.939 63.935 59.371ZM80.216 87.154L76.328 84.805L91.637 53.944H98.198L80.216 87.154ZM94.148 59.047L82.97 57.751L83.051 53.944H94.391L94.148 59.047ZM93.338 59.371L91.637 53.944H100.871L101.357 56.536C100.169 57.076 98.873 57.589 97.469 58.075C96.065 58.507 94.688 58.939 93.338 59.371ZM98.6327 106.594L119.936 54.997L124.553 57.022L105.113 106.594H98.6327ZM139.781 106.594L119.126 54.187L125.525 52L147.962 106.594H139.781ZM110.378 90.313V85.372H133.949V90.313H110.378ZM94.5017 106.594L94.0157 104.002C95.2577 103.408 96.5537 102.895 97.9037 102.463C99.3077 101.977 100.685 101.545 102.035 101.167L102.116 106.594H94.5017ZM104.06 106.594L104.303 101.491L115.481 102.787L115.4 106.594H104.06ZM130.223 106.594L129.737 104.002C130.979 103.408 132.275 102.895 133.625 102.463C135.029 101.977 136.406 101.545 137.756 101.167L142.049 106.594H130.223ZM140.591 106.594L140.834 101.491L152.012 102.787L151.931 106.594H140.591ZM163.758 86.749L164.001 80.917C165.243 81.187 166.566 81.403 167.97 81.565C169.374 81.727 170.67 81.862 171.858 81.97C173.1 82.024 174.045 82.051 174.693 82.051C177.609 82.051 179.931 81.457 181.659 80.269C183.441 79.081 184.737 77.569 185.547 75.733C186.357 73.843 186.762 71.872 186.762 69.82C186.762 68.146 186.519 66.553 186.033 65.041C185.601 63.475 184.899 62.098 183.927 60.91C183.009 59.668 181.848 58.723 180.444 58.075L165.216 59.371L153.228 53.944L175.827 53.296C180.147 53.296 183.711 54.133 186.519 55.807C189.381 57.427 191.514 59.506 192.918 62.044C194.322 64.582 195.024 67.255 195.024 70.063C195.024 72.817 194.322 75.49 192.918 78.082C191.568 80.62 189.516 82.699 186.762 84.319C184.062 85.939 180.66 86.749 176.556 86.749H163.758ZM152.499 106.594L152.013 104.002C153.255 103.408 154.551 102.895 155.901 102.463C157.305 101.977 158.682 101.545 160.032 101.167L160.113 106.594H152.499ZM164.487 106.594L164.73 101.491L175.908 102.787L175.827 106.594H164.487ZM158.898 106.594V53.944H166.431V106.594H158.898ZM160.923 58.318L153.147 57.832L153.228 53.944H160.761L160.923 58.318ZM193.95 106.594L215.253 54.997L219.87 57.022L200.43 106.594H193.95ZM235.098 106.594L214.443 54.187L220.842 52L243.279 106.594H235.098ZM205.695 90.313V85.372H229.266V90.313H205.695ZM189.819 106.594L189.333 104.002C190.575 103.408 191.871 102.895 193.221 102.463C194.625 101.977 196.002 101.545 197.352 101.167L197.433 106.594H189.819ZM199.377 106.594L199.62 101.491L210.798 102.787L210.717 106.594H199.377ZM225.54 106.594L225.054 104.002C226.296 103.408 227.592 102.895 228.942 102.463C230.346 101.977 231.723 101.545 233.073 101.167L237.366 106.594H225.54ZM235.908 106.594L236.151 101.491L247.329 102.787L247.248 106.594H235.908Z" fill="#ffdd55"/>
</svg>
