<svg width="40" height="40" viewBox="0 0 40 40" fill="none" xmlns="http://www.w3.org/2000/svg">
<path d="M26.6666 7.08333C26.6666 9.15 24.9833 10.8333 22.9166 10.8333H17.0833C16.05 10.8333 15.1166 10.4167 14.4333 9.73333C13.75 9.05 13.3333 8.11667 13.3333 7.08333C13.3333 5.01667 15.0166 3.33333 17.0833 3.33333H22.9166C23.95 3.33333 24.8833 3.75 25.5666 4.43333C26.25 5.11667 26.6666 6.05 26.6666 7.08333Z" fill="white"/>
<path d="M31.3834 8.38167C30.9979 8.06541 30.5647 7.81227 30.1 7.63167C29.6167 7.44833 29.1334 7.83167 29.0334 8.33167C28.4667 11.1817 25.95 13.3317 22.9167 13.3317H17.0834C15.4167 13.3317 13.85 12.6817 12.6667 11.4983C11.801 10.6395 11.2095 9.54332 10.9667 8.34833C10.8667 7.84833 10.3667 7.44833 9.88335 7.64833C7.95002 8.43167 6.66669 10.1983 6.66669 13.7483V29.9983C6.66669 34.9983 9.65002 36.665 13.3334 36.665H26.6667C30.35 36.665 33.3334 34.9983 33.3334 29.9983V13.7483C33.3334 11.0317 32.5834 9.365 31.3834 8.38167V8.38167ZM13.3334 20.415H20C20.6834 20.415 21.25 20.9817 21.25 21.665C21.25 22.3483 20.6834 22.915 20 22.915H13.3334C12.65 22.915 12.0834 22.3483 12.0834 21.665C12.0834 20.9817 12.65 20.415 13.3334 20.415ZM26.6667 29.5817H13.3334C12.65 29.5817 12.0834 29.015 12.0834 28.3317C12.0834 27.6483 12.65 27.0817 13.3334 27.0817H26.6667C27.35 27.0817 27.9167 27.6483 27.9167 28.3317C27.9167 29.015 27.35 29.5817 26.6667 29.5817Z" fill="white"/>
</svg>
