<svg width="34" height="37" viewBox="0 0 34 37" fill="none" xmlns="http://www.w3.org/2000/svg">
<path d="M22.9167 3.93334V1.33334C22.9167 0.650003 22.35 0.0833359 21.6667 0.0833359C20.9833 0.0833359 20.4167 0.650003 20.4167 1.33334V3.83334H9.58333V1.33334C9.58333 0.650003 9.01667 0.0833359 8.33333 0.0833359C7.65 0.0833359 7.08333 0.650003 7.08333 1.33334V3.93334C2.58333 4.35 0.4 7.03334 0.0666666 11.0167C0.0333333 11.5 0.433333 11.9 0.9 11.9H29.1C29.5833 11.9 29.9833 11.4833 29.9333 11.0167C29.6 7.03334 27.4167 4.35 22.9167 3.93334V3.93334ZM28.3333 14.4H1.66667C0.75 14.4 0 15.15 0 16.0667V26.3333C0 31.3333 2.5 34.6667 8.33333 34.6667H16.55C17.7 34.6667 18.5 33.55 18.1333 32.4667C17.8 31.5 17.5167 30.4333 17.5167 29.6667C17.5167 24.6167 21.6333 20.5 26.6833 20.5C27.1667 20.5 27.65 20.5333 28.1167 20.6167C29.1167 20.7667 30.0167 19.9833 30.0167 18.9833V16.0833C30.0123 15.6382 29.8336 15.2126 29.5188 14.8978C29.2041 14.5831 28.7784 14.4043 28.3333 14.4V14.4ZM10.35 27.5167C10.1833 27.6667 10 27.7833 9.8 27.8667C9.6 27.95 9.38333 28 9.16667 28C8.95 28 8.73333 27.95 8.53333 27.8667C8.33333 27.7833 8.15 27.6667 7.98333 27.5167C7.68333 27.2 7.5 26.7667 7.5 26.3333C7.5 26.2333 7.51667 26.1167 7.53333 26.0167C7.55 25.9 7.58333 25.8 7.63333 25.7C7.66667 25.6 7.71667 25.5 7.78333 25.4C7.83333 25.3167 7.91667 25.2333 7.98333 25.15C8.15 25 8.33333 24.8833 8.53333 24.8C8.9391 24.6333 9.39423 24.6333 9.8 24.8C10 24.8833 10.1833 25 10.35 25.15C10.4167 25.2333 10.5 25.3167 10.55 25.4C10.6167 25.5 10.6667 25.6 10.7 25.7C10.75 25.8 10.7833 25.9 10.8 26.0167C10.8167 26.1167 10.8333 26.2333 10.8333 26.3333C10.8333 26.7667 10.65 27.2 10.35 27.5167V27.5167ZM10.35 21.6833C10.1833 21.8333 10 21.95 9.8 22.0333C9.6 22.1167 9.38333 22.1667 9.16667 22.1667C8.95 22.1667 8.73333 22.1167 8.53333 22.0333C8.31667 21.95 8.15 21.8333 7.98333 21.6833C7.68333 21.3667 7.5 20.9333 7.5 20.5C7.5 20.0667 7.68333 19.6333 7.98333 19.3167C8.15 19.1667 8.33333 19.05 8.53333 18.9667C8.9391 18.8 9.39423 18.8 9.8 18.9667C10 19.05 10.1833 19.1667 10.35 19.3167C10.4167 19.4 10.5 19.4833 10.55 19.5667C10.6167 19.6667 10.6667 19.7667 10.7 19.8667C10.75 19.9667 10.7833 20.0667 10.8 20.1667C10.8167 20.2833 10.8333 20.4 10.8333 20.5C10.8333 20.9333 10.65 21.3667 10.35 21.6833V21.6833ZM16.1833 21.6833C15.8667 21.9833 15.45 22.1667 15 22.1667C14.7833 22.1667 14.5667 22.1167 14.3667 22.0333C14.15 21.95 13.9833 21.8333 13.8167 21.6833C13.5167 21.3667 13.3333 20.9333 13.3333 20.5C13.3333 20.4 13.35 20.2833 13.3667 20.1667C13.3833 20.0667 13.4167 19.9667 13.4667 19.8667C13.5 19.7667 13.55 19.6667 13.6167 19.5667L13.8167 19.3167C14.4333 18.7 15.55 18.7 16.1833 19.3167L16.3833 19.5667C16.45 19.6667 16.5 19.7667 16.5333 19.8667C16.5833 19.9667 16.6167 20.0667 16.6333 20.1667C16.65 20.2833 16.6667 20.4 16.6667 20.5C16.6667 20.9333 16.4833 21.3667 16.1833 21.6833V21.6833Z" fill="white"/>
<path d="M31.3833 24.95C30.1311 23.7014 28.435 23.0003 26.6666 23.0003C24.8983 23.0003 23.2022 23.7014 21.95 24.95C20.7014 26.2022 20.0002 27.8984 20.0002 29.6667C20.0002 31.435 20.7014 33.1311 21.95 34.3833C23.2022 35.6319 24.8983 36.3331 26.6666 36.3331C28.435 36.3331 30.1311 35.6319 31.3833 34.3833C32.6319 33.1311 33.333 31.435 33.333 29.6667C33.333 27.8984 32.6319 26.2022 31.3833 24.95V24.95ZM30.1166 30.6C29.9 30.8333 29.5833 30.9667 29.2333 30.9667H28V32.2667C28 32.6167 27.8666 32.9167 27.6333 33.15C27.4 33.3833 27.1 33.5167 26.75 33.5167C26.0666 33.5167 25.5 32.95 25.5 32.2667V30.9667H24.25C23.9185 30.9667 23.6005 30.835 23.3661 30.6005C23.1317 30.3661 23 30.0482 23 29.7167C23 29.3851 23.1317 29.0672 23.3661 28.8328C23.6005 28.5984 23.9185 28.4667 24.25 28.4667H25.5V27.2833C25.5 26.9518 25.6317 26.6339 25.8661 26.3994C26.1005 26.165 26.4185 26.0333 26.75 26.0333C27.0815 26.0333 27.3994 26.165 27.6339 26.3994C27.8683 26.6339 28 26.9518 28 27.2833V28.4667H29.2333C29.9333 28.4667 30.4833 29.0333 30.4833 29.7167C30.4833 30.0667 30.35 30.3833 30.1166 30.6Z" fill="white"/>
</svg>
