<svg width="23" height="34" viewBox="0 0 23 34" fill="none" xmlns="http://www.w3.org/2000/svg">
<path d="M20.9833 23.1166L14.25 17H9.73334L3.00001 23.1166C2.08414 23.9349 1.44128 25.0144 1.15816 26.2095C0.87503 27.4046 0.965261 28.6578 1.41668 29.8C1.85873 30.9424 2.63715 31.9237 3.64898 32.6141C4.66082 33.3045 5.8584 33.6716 7.08334 33.6666H16.9C19.4333 33.6666 21.65 32.15 22.5667 29.8C23.4833 27.4333 22.8667 24.8166 20.9833 23.1166ZM15.0333 27.2333H8.96668C8.6661 27.2333 8.37783 27.1139 8.16529 26.9014C7.95275 26.6888 7.83334 26.4005 7.83334 26.1C7.83334 25.4833 8.35001 24.9666 8.96668 24.9666H15.0333C15.6667 24.9666 16.1667 25.4833 16.1667 26.1C16.1667 26.7166 15.65 27.2333 15.0333 27.2333ZM22.5833 4.19997C22.1413 3.05756 21.3629 2.07625 20.351 1.38582C19.3392 0.695392 18.1416 0.328371 16.9167 0.333301H7.08334C5.85732 0.328662 4.65882 0.696623 3.64662 1.38844C2.63442 2.08025 1.85629 3.06327 1.41532 4.20725C0.974352 5.35124 0.891356 6.6022 1.17733 7.79442C1.4633 8.98663 2.10474 10.0638 3.01668 10.8833L9.75001 17H14.2667L21 10.8833C21.9094 10.0605 22.5476 8.98102 22.8303 7.78769C23.113 6.59435 23.0269 5.34332 22.5833 4.19997V4.19997ZM15.0333 9.04997H8.96668C8.6661 9.04997 8.37783 8.93056 8.16529 8.71802C7.95275 8.50548 7.83334 8.21721 7.83334 7.91663C7.83334 7.29997 8.35001 6.7833 8.96668 6.7833H15.0333C15.6667 6.7833 16.1667 7.29997 16.1667 7.91663C16.1667 8.5333 15.65 9.04997 15.0333 9.04997Z" fill="white"/>
</svg>
