<svg width="200" height="160" viewBox="0 0 300 180" fill="none" xmlns="http://www.w3.org/2000/svg">
<path d="M39.519 137.781V139.557H34.959V154.509H32.775V139.557H28.191V137.781H39.519ZM48.7354 141.117C49.7274 141.117 50.6234 141.333 51.4234 141.765C52.2234 142.181 52.8474 142.813 53.2954 143.661C53.7594 144.509 53.9914 145.541 53.9914 146.757V154.509H51.8314V147.069C51.8314 145.757 51.5034 144.757 50.8474 144.069C50.1914 143.365 49.2954 143.013 48.1594 143.013C47.0074 143.013 46.0874 143.373 45.3994 144.093C44.7274 144.813 44.3914 145.861 44.3914 147.237V154.509H42.2074V136.749H44.3914V143.229C44.8234 142.557 45.4154 142.037 46.1674 141.669C46.9354 141.301 47.7914 141.117 48.7354 141.117ZM69.5589 147.429C69.5589 147.845 69.5349 148.285 69.4869 148.749H58.9749C59.0549 150.045 59.4949 151.061 60.2949 151.797C61.1109 152.517 62.0949 152.877 63.2469 152.877C64.1909 152.877 64.9749 152.661 65.5989 152.229C66.2389 151.781 66.6869 151.189 66.9429 150.453H69.2949C68.9429 151.717 68.2389 152.749 67.1829 153.549C66.1269 154.333 64.8149 154.725 63.2469 154.725C61.9989 154.725 60.8789 154.445 59.8869 153.885C58.9109 153.325 58.1429 152.533 57.5829 151.509C57.0229 150.469 56.7429 149.269 56.7429 147.909C56.7429 146.549 57.0149 145.357 57.5589 144.333C58.1029 143.309 58.8629 142.525 59.8389 141.981C60.8309 141.421 61.9669 141.141 63.2469 141.141C64.4949 141.141 65.5989 141.413 66.5589 141.957C67.5189 142.501 68.2549 143.253 68.7669 144.213C69.2949 145.157 69.5589 146.229 69.5589 147.429ZM67.3029 146.973C67.3029 146.141 67.1189 145.429 66.7509 144.837C66.3829 144.229 65.8789 143.773 65.2389 143.469C64.6149 143.149 63.9189 142.989 63.1509 142.989C62.0469 142.989 61.1029 143.341 60.3189 144.045C59.5509 144.749 59.1109 145.725 58.9989 146.973H67.3029ZM90.0242 142.677C90.0242 144.069 89.5442 145.229 88.5842 146.157C87.6402 147.069 86.1922 147.525 84.2402 147.525H81.0242V154.509H78.8402V137.781H84.2402C86.1282 137.781 87.5602 138.237 88.5362 139.149C89.5282 140.061 90.0242 141.237 90.0242 142.677ZM84.2402 145.725C85.4562 145.725 86.3522 145.461 86.9282 144.933C87.5042 144.405 87.7922 143.653 87.7922 142.677C87.7922 140.613 86.6082 139.581 84.2402 139.581H81.0242V145.725H84.2402ZM94.9226 143.493C95.3066 142.741 95.8506 142.157 96.5546 141.741C97.2746 141.325 98.1466 141.117 99.1706 141.117V143.373H98.5946C96.1466 143.373 94.9226 144.701 94.9226 147.357V154.509H92.7386V141.357H94.9226V143.493ZM107.428 154.725C106.196 154.725 105.076 154.445 104.068 153.885C103.076 153.325 102.292 152.533 101.716 151.509C101.156 150.469 100.876 149.269 100.876 147.909C100.876 146.565 101.164 145.381 101.74 144.357C102.332 143.317 103.132 142.525 104.14 141.981C105.148 141.421 106.276 141.141 107.524 141.141C108.772 141.141 109.9 141.421 110.908 141.981C111.916 142.525 112.708 143.309 113.284 144.333C113.876 145.357 114.172 146.549 114.172 147.909C114.172 149.269 113.868 150.469 113.26 151.509C112.668 152.533 111.86 153.325 110.836 153.885C109.812 154.445 108.676 154.725 107.428 154.725ZM107.428 152.805C108.212 152.805 108.948 152.621 109.636 152.253C110.324 151.885 110.876 151.333 111.292 150.597C111.724 149.861 111.94 148.965 111.94 147.909C111.94 146.853 111.732 145.957 111.316 145.221C110.9 144.485 110.356 143.941 109.684 143.589C109.012 143.221 108.284 143.037 107.5 143.037C106.7 143.037 105.964 143.221 105.292 143.589C104.636 143.941 104.108 144.485 103.708 145.221C103.308 145.957 103.108 146.853 103.108 147.909C103.108 148.981 103.3 149.885 103.684 150.621C104.084 151.357 104.612 151.909 105.268 152.277C105.924 152.629 106.644 152.805 107.428 152.805ZM116.227 147.885C116.227 146.541 116.499 145.365 117.043 144.357C117.587 143.333 118.331 142.541 119.275 141.981C120.235 141.421 121.307 141.141 122.491 141.141C123.515 141.141 124.467 141.381 125.347 141.861C126.227 142.325 126.899 142.941 127.363 143.709V136.749H129.571V154.509H127.363V152.037C126.931 152.821 126.291 153.469 125.443 153.981C124.595 154.477 123.603 154.725 122.467 154.725C121.299 154.725 120.235 154.437 119.275 153.861C118.331 153.285 117.587 152.477 117.043 151.437C116.499 150.397 116.227 149.213 116.227 147.885ZM127.363 147.909C127.363 146.917 127.163 146.053 126.763 145.317C126.363 144.581 125.819 144.021 125.131 143.637C124.459 143.237 123.715 143.037 122.899 143.037C122.083 143.037 121.339 143.229 120.667 143.613C119.995 143.997 119.459 144.557 119.059 145.293C118.659 146.029 118.459 146.893 118.459 147.885C118.459 148.893 118.659 149.773 119.059 150.525C119.459 151.261 119.995 151.829 120.667 152.229C121.339 152.613 122.083 152.805 122.899 152.805C123.715 152.805 124.459 152.613 125.131 152.229C125.819 151.829 126.363 151.261 126.763 150.525C127.163 149.773 127.363 148.901 127.363 147.909ZM144.926 141.357V154.509H142.742V152.565C142.326 153.237 141.742 153.765 140.99 154.149C140.254 154.517 139.438 154.701 138.542 154.701C137.518 154.701 136.598 154.493 135.782 154.077C134.966 153.645 134.318 153.005 133.838 152.157C133.374 151.309 133.142 150.277 133.142 149.061V141.357H135.302V148.773C135.302 150.069 135.63 151.069 136.286 151.773C136.942 152.461 137.838 152.805 138.974 152.805C140.142 152.805 141.062 152.445 141.734 151.725C142.406 151.005 142.742 149.957 142.742 148.581V141.357H144.926ZM147.798 147.909C147.798 146.549 148.07 145.365 148.614 144.357C149.158 143.333 149.91 142.541 150.87 141.981C151.846 141.421 152.958 141.141 154.206 141.141C155.822 141.141 157.15 141.533 158.19 142.317C159.246 143.101 159.942 144.189 160.278 145.581H157.926C157.702 144.781 157.262 144.149 156.606 143.685C155.966 143.221 155.166 142.989 154.206 142.989C152.958 142.989 151.95 143.421 151.182 144.285C150.414 145.133 150.03 146.341 150.03 147.909C150.03 149.493 150.414 150.717 151.182 151.581C151.95 152.445 152.958 152.877 154.206 152.877C155.166 152.877 155.966 152.653 156.606 152.205C157.246 151.757 157.686 151.117 157.926 150.285H160.278C159.926 151.629 159.222 152.709 158.166 153.525C157.11 154.325 155.79 154.725 154.206 154.725C152.958 154.725 151.846 154.445 150.87 153.885C149.91 153.325 149.158 152.533 148.614 151.509C148.07 150.485 147.798 149.285 147.798 147.909ZM165.856 143.157V150.909C165.856 151.549 165.992 152.005 166.264 152.277C166.536 152.533 167.008 152.661 167.68 152.661H169.288V154.509H167.32C166.104 154.509 165.192 154.229 164.584 153.669C163.976 153.109 163.672 152.189 163.672 150.909V143.157H161.968V141.357H163.672V138.045H165.856V141.357H169.288V143.157H165.856ZM173.062 139.221C172.646 139.221 172.294 139.077 172.006 138.789C171.718 138.501 171.574 138.149 171.574 137.733C171.574 137.317 171.718 136.965 172.006 136.677C172.294 136.389 172.646 136.245 173.062 136.245C173.462 136.245 173.798 136.389 174.07 136.677C174.358 136.965 174.502 137.317 174.502 137.733C174.502 138.149 174.358 138.501 174.07 138.789C173.798 139.077 173.462 139.221 173.062 139.221ZM174.118 141.357V154.509H171.934V141.357H174.118ZM182.736 152.493L186.816 141.357H189.144L183.984 154.509H181.44L176.28 141.357H178.632L182.736 152.493ZM192.421 139.221C192.005 139.221 191.653 139.077 191.365 138.789C191.077 138.501 190.933 138.149 190.933 137.733C190.933 137.317 191.077 136.965 191.365 136.677C191.653 136.389 192.005 136.245 192.421 136.245C192.821 136.245 193.157 136.389 193.429 136.677C193.717 136.965 193.861 137.317 193.861 137.733C193.861 138.149 193.717 138.501 193.429 138.789C193.157 139.077 192.821 139.221 192.421 139.221ZM193.477 141.357V154.509H191.293V141.357H193.477ZM199.864 143.157V150.909C199.864 151.549 200 152.005 200.272 152.277C200.544 152.533 201.016 152.661 201.688 152.661H203.296V154.509H201.328C200.112 154.509 199.2 154.229 198.592 153.669C197.984 153.109 197.68 152.189 197.68 150.909V143.157H195.976V141.357H197.68V138.045H199.864V141.357H203.296V143.157H199.864ZM217.27 141.357L209.35 160.701H207.094L209.686 154.365L204.382 141.357H206.806L210.934 152.013L215.014 141.357H217.27ZM235.752 150.789H228.456L227.112 154.509H224.808L230.856 137.877H233.376L239.4 154.509H237.096L235.752 150.789ZM235.128 149.013L232.104 140.565L229.08 149.013H235.128ZM244.22 143.781C244.652 143.029 245.292 142.405 246.14 141.909C247.004 141.397 248.004 141.141 249.14 141.141C250.308 141.141 251.364 141.421 252.307 141.981C253.267 142.541 254.02 143.333 254.564 144.357C255.108 145.365 255.38 146.541 255.38 147.885C255.38 149.213 255.108 150.397 254.564 151.437C254.02 152.477 253.267 153.285 252.307 153.861C251.364 154.437 250.308 154.725 249.14 154.725C248.02 154.725 247.028 154.477 246.164 153.981C245.316 153.469 244.668 152.837 244.22 152.085V160.749H242.036V141.357H244.22V143.781ZM253.148 147.885C253.148 146.893 252.948 146.029 252.548 145.293C252.148 144.557 251.604 143.997 250.916 143.613C250.244 143.229 249.5 143.037 248.684 143.037C247.884 143.037 247.14 143.237 246.452 143.637C245.78 144.021 245.236 144.589 244.82 145.341C244.42 146.077 244.22 146.933 244.22 147.909C244.22 148.901 244.42 149.773 244.82 150.525C245.236 151.261 245.78 151.829 246.452 152.229C247.14 152.613 247.884 152.805 248.684 152.805C249.5 152.805 250.244 152.613 250.916 152.229C251.604 151.829 252.148 151.261 252.548 150.525C252.948 149.773 253.148 148.893 253.148 147.885ZM260.438 143.781C260.87 143.029 261.51 142.405 262.358 141.909C263.222 141.397 264.222 141.141 265.358 141.141C266.526 141.141 267.582 141.421 268.526 141.981C269.486 142.541 270.238 143.333 270.782 144.357C271.326 145.365 271.598 146.541 271.598 147.885C271.598 149.213 271.326 150.397 270.782 151.437C270.238 152.477 269.486 153.285 268.526 153.861C267.582 154.437 266.526 154.725 265.358 154.725C264.238 154.725 263.246 154.477 262.382 153.981C261.534 153.469 260.886 152.837 260.438 152.085V160.749H258.254V141.357H260.438V143.781ZM269.366 147.885C269.366 146.893 269.166 146.029 268.766 145.293C268.366 144.557 267.822 143.997 267.134 143.613C266.462 143.229 265.718 143.037 264.902 143.037C264.102 143.037 263.358 143.237 262.67 143.637C261.998 144.021 261.454 144.589 261.038 145.341C260.638 146.077 260.438 146.933 260.438 147.909C260.438 148.901 260.638 149.773 261.038 150.525C261.454 151.261 261.998 151.829 262.67 152.229C263.358 152.613 264.102 152.805 264.902 152.805C265.718 152.805 266.462 152.613 267.134 152.229C267.822 151.829 268.366 151.261 268.766 150.525C269.166 149.773 269.366 148.893 269.366 147.885Z" fill="#FFDD55"/>
<path d="M0.00491333 1.5L300.001 3.03372" stroke="#FFDD55" stroke-width="3"/>
<path d="M1.5 3V146.713" stroke="#FFDD55" stroke-width="3"/>
<path d="M298.5 3.95801V149.587" stroke="#FFDD55" stroke-width="3"/>
<path d="M0 148.087H27" stroke="#FFDD55" stroke-width="3"/>
<path d="M273 149.587L286.497 149.367L299.995 149.146" stroke="#FFDD55" stroke-width="3"/>
<g filter="url(#filter0_i_48_2)">
<path d="M96.784 39.9285L77.101 77.9985V96.7905H63.25V77.9985L43.567 39.9285H59.281L70.297 63.7425L81.232 39.9285H96.784ZM137.762 86.7465H116.54L113.138 96.7905H98.6388L119.213 39.9285H135.251L155.825 96.7905H141.164L137.762 86.7465ZM134.198 76.0545L127.151 55.2375L120.185 76.0545H134.198ZM205.421 58.2345C205.421 61.5285 204.665 64.5525 203.153 67.3065C201.641 70.0065 199.319 72.1935 196.187 73.8675C193.055 75.5415 189.167 76.3785 184.523 76.3785H175.937V96.7905H162.086V39.9285H184.523C189.059 39.9285 192.893 40.7115 196.025 42.2775C199.157 43.8435 201.506 46.0035 203.072 48.7575C204.638 51.5115 205.421 54.6705 205.421 58.2345ZM183.47 65.3625C186.116 65.3625 188.087 64.7415 189.383 63.4995C190.679 62.2575 191.327 60.5025 191.327 58.2345C191.327 55.9665 190.679 54.2115 189.383 52.9695C188.087 51.7275 186.116 51.1065 183.47 51.1065H175.937V65.3625H183.47ZM248.029 86.7465H226.807L223.405 96.7905H208.906L229.48 39.9285H245.518L266.092 96.7905H251.431L248.029 86.7465ZM244.465 76.0545L237.418 55.2375L230.452 76.0545H244.465Z" fill="#1E1E1E"/>
</g>
<path d="M98.1165 40.6174L99.2482 38.4285H96.784H81.232H80.2702L79.8689 39.3026L70.292 60.1588L60.6424 39.2987L60.2399 38.4285H59.281H43.567H41.1029L42.2346 40.6174L61.75 78.3633V96.7905V98.2905H63.25H77.101H78.601V96.7905V78.3633L98.1165 40.6174ZM113.138 98.2905H114.214L114.559 97.2717L117.616 88.2465H136.686L139.743 97.2717L140.088 98.2905H141.164H155.825H157.963L157.236 96.2801L136.662 39.4181L136.303 38.4285H135.251H119.213H118.161L117.803 39.4181L97.2283 96.2801L96.5009 98.2905H98.6388H113.138ZM204.462 68.0394L204.468 68.0284C206.107 65.0423 206.921 61.7682 206.921 58.2345C206.921 54.4436 206.086 51.0232 204.376 48.016C202.648 44.9767 200.065 42.6202 196.696 40.9359C193.303 39.2396 189.225 38.4285 184.523 38.4285H162.086H160.586V39.9285V96.7905V98.2905H162.086H175.937H177.437V96.7905V77.8785H184.523C189.34 77.8785 193.488 77.0109 196.894 75.1904C200.241 73.4017 202.79 71.0248 204.462 68.0394ZM223.405 98.2905H224.481L224.826 97.2717L227.883 88.2465H246.953L250.01 97.2717L250.355 98.2905H251.431H266.092H268.23L267.503 96.2801L246.929 39.4181L246.57 38.4285H245.518H229.48H228.428L228.07 39.4181L207.496 96.2801L206.768 98.2905H208.906H223.405ZM122.269 74.5545L127.159 59.9398L132.107 74.5545H122.269ZM188.345 62.4165C187.436 63.2874 185.911 63.8625 183.47 63.8625H177.437V52.6065H183.47C185.911 52.6065 187.436 53.1816 188.345 54.0525C189.273 54.9413 189.827 56.2612 189.827 58.2345C189.827 60.2078 189.273 61.5277 188.345 62.4165ZM232.536 74.5545L237.426 59.9398L242.374 74.5545H232.536Z" stroke="#FFDD55" stroke-width="3"/>
<defs>
<filter id="filter0_i_48_2" x="38.6387" y="36.9285" width="231.729" height="66.862" filterUnits="userSpaceOnUse" color-interpolation-filters="sRGB">
<feFlood flood-opacity="0" result="BackgroundImageFix"/>
<feBlend mode="normal" in="SourceGraphic" in2="BackgroundImageFix" result="shape"/>
<feColorMatrix in="SourceAlpha" type="matrix" values="0 0 0 0 0 0 0 0 0 0 0 0 0 0 0 0 0 0 127 0" result="hardAlpha"/>
<feOffset dy="4"/>
<feGaussianBlur stdDeviation="2"/>
<feComposite in2="hardAlpha" operator="arithmetic" k2="-1" k3="1"/>
<feColorMatrix type="matrix" values="0 0 0 0 0 0 0 0 0 0 0 0 0 0 0 0 0 0 0.25 0"/>
<feBlend mode="normal" in2="shape" result="effect1_innerShadow_48_2"/>
</filter>
</defs>
</svg>
