<svg width="34" height="33" viewBox="0 0 34 33" fill="none" xmlns="http://www.w3.org/2000/svg">
<path d="M31.4387 10.3104L19.8887 1.07709C18.1053 -0.356241 15.222 -0.356241 13.4553 1.06043L1.90532 10.3104C0.605325 11.3438 -0.228009 13.5271 0.0553246 15.1604L2.27199 28.4271C2.67199 30.7938 4.93866 32.7104 7.33866 32.7104H26.0053C28.3887 32.7104 30.672 30.7771 31.072 28.4271L33.2887 15.1604C33.5553 13.5271 32.722 11.3438 31.4387 10.3104V10.3104ZM16.672 22.1938C15.5669 22.1938 14.5071 21.7548 13.7257 20.9734C12.9443 20.192 12.5053 19.1322 12.5053 18.0271C12.5053 16.922 12.9443 15.8622 13.7257 15.0808C14.5071 14.2994 15.5669 13.8604 16.672 13.8604C17.7771 13.8604 18.8369 14.2994 19.6183 15.0808C20.3997 15.8622 20.8387 16.922 20.8387 18.0271C20.8387 19.1322 20.3997 20.192 19.6183 20.9734C18.8369 21.7548 17.7771 22.1938 16.672 22.1938V22.1938Z" fill="white"/>
</svg>
